<?xml version="1.0" encoding="UTF-8" standalone="no"?>
<!DOCTYPE svg PUBLIC "-//W3C//DTD SVG 1.1//EN"
 "http://www.w3.org/Graphics/SVG/1.1/DTD/svg11.dtd">
<!-- Generated by graphviz version 12.1.1 (20240910.0053)
 -->
<!-- Title: INFRA Pages: 1 -->
<svg width="968pt" height="80pt"
 viewBox="0.00 0.00 968.36 80.00" xmlns="http://www.w3.org/2000/svg" xmlns:xlink="http://www.w3.org/1999/xlink">
<g id="graph0" class="graph" transform="scale(1 1) rotate(0) translate(4 76)">
<title>INFRA</title>
<polygon fill="white" stroke="none" points="-4,4 -4,-76 964.36,-76 964.36,4 -4,4"/>
<!-- Azure Static Web App -->
<g id="node1" class="node">
<title>Azure Static Web App</title>
<path fill="#b7e0ff" stroke="black" stroke-width="2" d="M170.48,-72C170.48,-72 12,-72 12,-72 6,-72 0,-66 0,-60 0,-60 0,-12 0,-12 0,-6 6,0 12,0 12,0 170.48,0 170.48,0 176.48,0 182.48,-6 182.48,-12 182.48,-12 182.48,-60 182.48,-60 182.48,-66 176.48,-72 170.48,-72"/>
<text text-anchor="middle" x="91.24" y="-40.2" font-family="Arial" font-size="14.00">Azure Static Web App</text>
<text text-anchor="middle" x="91.24" y="-23.4" font-family="Arial" font-size="14.00">(Microsoft.Web/staticSites)</text>
</g>
<!-- danalyst -->
<g id="node2" class="node">
<title>danalyst</title>
<path fill="#b7e0ff" stroke="black" stroke-width="2" d="M335.97,-72C335.97,-72 212.51,-72 212.51,-72 206.51,-72 200.51,-66 200.51,-60 200.51,-60 200.51,-12 200.51,-12 200.51,-6 206.51,0 212.51,0 212.51,0 335.97,0 335.97,0 341.97,0 347.97,-6 347.97,-12 347.97,-12 347.97,-60 347.97,-60 347.97,-66 341.97,-72 335.97,-72"/>
<text text-anchor="middle" x="274.24" y="-40.2" font-family="Arial" font-size="14.00">danalyst</text>
<text text-anchor="middle" x="274.24" y="-23.4" font-family="Arial" font-size="14.00">(Microsoft.Web/sites)</text>
</g>
<!-- danalyst&#45;bdfebxhubde0hge2 -->
<g id="node3" class="node">
<title>danalyst&#45;bdfebxhubde0hge2</title>
<path fill="#b7e0ff" stroke="black" stroke-width="2" d="M546.59,-72C546.59,-72 377.89,-72 377.89,-72 371.89,-72 365.89,-66 365.89,-60 365.89,-60 365.89,-12 365.89,-12 365.89,-6 371.89,0 377.89,0 377.89,0 546.59,0 546.59,0 552.59,0 558.59,-6 558.59,-12 558.59,-12 558.59,-60 558.59,-60 558.59,-66 552.59,-72 546.59,-72"/>
<text text-anchor="middle" x="462.24" y="-40.2" font-family="Arial" font-size="14.00">danalyst&#45;bdfebxhubde0hge2</text>
<text text-anchor="middle" x="462.24" y="-23.4" font-family="Arial" font-size="14.00">(Microsoft.Web/sites)</text>
</g>
<!-- ENSAYO -->
<g id="node4" class="node">
<title>ENSAYO</title>
<path fill="#b7e0ff" stroke="black" stroke-width="2" d="M711.97,-72C711.97,-72 588.51,-72 588.51,-72 582.51,-72 576.51,-66 576.51,-60 576.51,-60 576.51,-12 576.51,-12 576.51,-6 582.51,0 588.51,0 588.51,0 711.97,0 711.97,0 717.97,0 723.97,-6 723.97,-12 723.97,-12 723.97,-60 723.97,-60 723.97,-66 717.97,-72 711.97,-72"/>
<text text-anchor="middle" x="650.24" y="-40.2" font-family="Arial" font-size="14.00">ENSAYO</text>
<text text-anchor="middle" x="650.24" y="-23.4" font-family="Arial" font-size="14.00">(Microsoft.Web/sites)</text>
</g>
<!-- MySQL Database -->
<g id="node5" class="node">
<title>MySQL Database</title>
<path fill="#ffcfb3" stroke="black" stroke-width="2" d="M960.36,-65.45C960.36,-69.07 911.45,-72 851.24,-72 791.02,-72 742.11,-69.07 742.11,-65.45 742.11,-65.45 742.11,-6.55 742.11,-6.55 742.11,-2.93 791.02,0 851.24,0 911.45,0 960.36,-2.93 960.36,-6.55 960.36,-6.55 960.36,-65.45 960.36,-65.45"/>
<path fill="none" stroke="black" stroke-width="2" d="M960.36,-65.45C960.36,-61.84 911.45,-58.91 851.24,-58.91 791.02,-58.91 742.11,-61.84 742.11,-65.45"/>
<text text-anchor="middle" x="851.24" y="-40.2" font-family="Arial" font-size="14.00">MySQL Database</text>
<text text-anchor="middle" x="851.24" y="-23.4" font-family="Arial" font-size="14.00">(Microsoft.DBforMySQL/servers)</text>
</g>
</g>
</svg>
